<svg width="32" height="32" viewBox="0 0 32 32" fill="none" xmlns="http://www.w3.org/2000/svg">
<path d="M31.2342 0.76215C30.2156 -0.25405 28.5634 -0.25405 27.5448 0.76215C25.8038 2.50421 21.5457 7.00692 16.5533 8.26427C11.6016 9.6716 5.66252 7.90194 3.28329 7.26487C1.8915 6.89174 0.461318 7.71718 0.0905746 9.10891C-0.284968 10.5018 0.541706 11.9332 1.93349 12.3051C4.31273 12.941 10.3406 14.3795 13.9233 18.0735C17.6175 21.656 19.0561 27.6872 19.6956 30.0664C20.0651 31.4569 21.4977 32.2835 22.8883 31.9104C24.2801 31.5361 25.1068 30.106 24.7336 28.7154C24.0965 26.3339 22.3256 20.3963 23.7354 15.4449C24.994 10.455 29.4957 6.19348 31.2342 4.45382C32.2553 3.43402 32.2553 1.78075 31.2342 0.76215Z" fill="#DC0028"/>
</svg>
